<mxfile host="app.diagrams.net" agent="Mozilla/5.0 (Windows NT 10.0; Win64; x64) AppleWebKit/537.36 (KHTML, like Gecko) Chrome/135.0.0.0 Safari/537.36" version="26.2.14">
  <diagram name="Página-1" id="1y3uljFw9QOdfljGZ6BB">
    <mxGraphModel dx="1042" dy="570" grid="1" gridSize="10" guides="1" tooltips="1" connect="1" arrows="1" fold="1" page="1" pageScale="1" pageWidth="827" pageHeight="1169" math="0" shadow="0">
      <root>
        <mxCell id="0" />
        <mxCell id="1" parent="0" />
        <mxCell id="xGtlebXgADdg8n_4w4U1-3" value="" style="edgeStyle=orthogonalEdgeStyle;rounded=0;orthogonalLoop=1;jettySize=auto;html=1;" edge="1" parent="1" source="xGtlebXgADdg8n_4w4U1-1">
          <mxGeometry relative="1" as="geometry">
            <mxPoint x="120" y="130" as="targetPoint" />
          </mxGeometry>
        </mxCell>
        <mxCell id="xGtlebXgADdg8n_4w4U1-1" value="Inicio" style="ellipse;whiteSpace=wrap;html=1;" vertex="1" parent="1">
          <mxGeometry x="60" y="10" width="120" height="80" as="geometry" />
        </mxCell>
        <mxCell id="xGtlebXgADdg8n_4w4U1-7" value="Sim" style="edgeStyle=orthogonalEdgeStyle;rounded=0;orthogonalLoop=1;jettySize=auto;html=1;" edge="1" parent="1" source="xGtlebXgADdg8n_4w4U1-4" target="xGtlebXgADdg8n_4w4U1-6">
          <mxGeometry relative="1" as="geometry" />
        </mxCell>
        <mxCell id="xGtlebXgADdg8n_4w4U1-4" value="1 - compra peças" style="rhombus;whiteSpace=wrap;html=1;" vertex="1" parent="1">
          <mxGeometry x="75" y="390" width="80" height="80" as="geometry" />
        </mxCell>
        <mxCell id="xGtlebXgADdg8n_4w4U1-39" value="" style="edgeStyle=orthogonalEdgeStyle;rounded=0;orthogonalLoop=1;jettySize=auto;html=1;" edge="1" parent="1" source="xGtlebXgADdg8n_4w4U1-6" target="xGtlebXgADdg8n_4w4U1-38">
          <mxGeometry relative="1" as="geometry" />
        </mxCell>
        <mxCell id="xGtlebXgADdg8n_4w4U1-6" value="Somar quantidade inseriada ao saldo anterior" style="rounded=0;whiteSpace=wrap;html=1;" vertex="1" parent="1">
          <mxGeometry x="55" y="520" width="120" height="60" as="geometry" />
        </mxCell>
        <mxCell id="xGtlebXgADdg8n_4w4U1-48" value="" style="edgeStyle=orthogonalEdgeStyle;rounded=0;orthogonalLoop=1;jettySize=auto;html=1;" edge="1" parent="1" source="xGtlebXgADdg8n_4w4U1-36" target="xGtlebXgADdg8n_4w4U1-47">
          <mxGeometry relative="1" as="geometry" />
        </mxCell>
        <mxCell id="xGtlebXgADdg8n_4w4U1-36" value="Mostra saldo estoque" style="shape=display;whiteSpace=wrap;html=1;" vertex="1" parent="1">
          <mxGeometry x="70" y="130" width="90" height="50" as="geometry" />
        </mxCell>
        <mxCell id="xGtlebXgADdg8n_4w4U1-46" value="" style="edgeStyle=orthogonalEdgeStyle;rounded=0;orthogonalLoop=1;jettySize=auto;html=1;" edge="1" parent="1" source="xGtlebXgADdg8n_4w4U1-38" target="xGtlebXgADdg8n_4w4U1-45">
          <mxGeometry relative="1" as="geometry" />
        </mxCell>
        <mxCell id="xGtlebXgADdg8n_4w4U1-38" value="Adicionar mais peças?" style="rhombus;whiteSpace=wrap;html=1;rounded=0;" vertex="1" parent="1">
          <mxGeometry x="62.5" y="610" width="105" height="100" as="geometry" />
        </mxCell>
        <mxCell id="xGtlebXgADdg8n_4w4U1-45" value="Fim" style="ellipse;whiteSpace=wrap;html=1;rounded=0;" vertex="1" parent="1">
          <mxGeometry x="270" y="620" width="80" height="80" as="geometry" />
        </mxCell>
        <mxCell id="xGtlebXgADdg8n_4w4U1-52" value="" style="edgeStyle=orthogonalEdgeStyle;rounded=0;orthogonalLoop=1;jettySize=auto;html=1;" edge="1" parent="1" source="xGtlebXgADdg8n_4w4U1-47" target="xGtlebXgADdg8n_4w4U1-51">
          <mxGeometry relative="1" as="geometry" />
        </mxCell>
        <mxCell id="xGtlebXgADdg8n_4w4U1-47" value="1 - compra de peças&lt;div&gt;2 venda de peças&lt;/div&gt;" style="shape=display;whiteSpace=wrap;html=1;" vertex="1" parent="1">
          <mxGeometry x="40" y="210" width="150" height="60" as="geometry" />
        </mxCell>
        <mxCell id="xGtlebXgADdg8n_4w4U1-53" value="" style="edgeStyle=orthogonalEdgeStyle;rounded=0;orthogonalLoop=1;jettySize=auto;html=1;" edge="1" parent="1" source="xGtlebXgADdg8n_4w4U1-51" target="xGtlebXgADdg8n_4w4U1-4">
          <mxGeometry relative="1" as="geometry" />
        </mxCell>
        <mxCell id="xGtlebXgADdg8n_4w4U1-59" value="" style="edgeStyle=orthogonalEdgeStyle;rounded=0;orthogonalLoop=1;jettySize=auto;html=1;" edge="1" parent="1" source="xGtlebXgADdg8n_4w4U1-51" target="xGtlebXgADdg8n_4w4U1-58">
          <mxGeometry relative="1" as="geometry" />
        </mxCell>
        <mxCell id="xGtlebXgADdg8n_4w4U1-51" value="Opção escolhida" style="shape=manualInput;whiteSpace=wrap;html=1;" vertex="1" parent="1">
          <mxGeometry x="75" y="290" width="80" height="80" as="geometry" />
        </mxCell>
        <mxCell id="xGtlebXgADdg8n_4w4U1-54" value="" style="endArrow=none;html=1;rounded=0;" edge="1" parent="1">
          <mxGeometry width="50" height="50" relative="1" as="geometry">
            <mxPoint x="20" y="660" as="sourcePoint" />
            <mxPoint x="60" y="660" as="targetPoint" />
          </mxGeometry>
        </mxCell>
        <mxCell id="xGtlebXgADdg8n_4w4U1-55" value="" style="endArrow=none;html=1;rounded=0;" edge="1" parent="1">
          <mxGeometry width="50" height="50" relative="1" as="geometry">
            <mxPoint x="20" y="660" as="sourcePoint" />
            <mxPoint x="20" y="560" as="targetPoint" />
          </mxGeometry>
        </mxCell>
        <mxCell id="xGtlebXgADdg8n_4w4U1-57" value="SIM" style="edgeLabel;html=1;align=center;verticalAlign=middle;resizable=0;points=[];" vertex="1" connectable="0" parent="xGtlebXgADdg8n_4w4U1-55">
          <mxGeometry x="-0.06" y="2" relative="1" as="geometry">
            <mxPoint as="offset" />
          </mxGeometry>
        </mxCell>
        <mxCell id="xGtlebXgADdg8n_4w4U1-56" value="" style="endArrow=classic;html=1;rounded=0;" edge="1" parent="1">
          <mxGeometry width="50" height="50" relative="1" as="geometry">
            <mxPoint x="20" y="560" as="sourcePoint" />
            <mxPoint x="52" y="560" as="targetPoint" />
          </mxGeometry>
        </mxCell>
        <mxCell id="xGtlebXgADdg8n_4w4U1-68" value="SIM" style="edgeStyle=orthogonalEdgeStyle;rounded=0;orthogonalLoop=1;jettySize=auto;html=1;" edge="1" parent="1" source="xGtlebXgADdg8n_4w4U1-58" target="xGtlebXgADdg8n_4w4U1-67">
          <mxGeometry relative="1" as="geometry" />
        </mxCell>
        <mxCell id="xGtlebXgADdg8n_4w4U1-58" value="2 - Venda?" style="rhombus;whiteSpace=wrap;html=1;" vertex="1" parent="1">
          <mxGeometry x="235" y="290" width="80" height="80" as="geometry" />
        </mxCell>
        <mxCell id="xGtlebXgADdg8n_4w4U1-62" value="Deseja continuar?" style="rhombus;whiteSpace=wrap;html=1;" vertex="1" parent="1">
          <mxGeometry x="412.5" y="580" width="95" height="80" as="geometry" />
        </mxCell>
        <mxCell id="xGtlebXgADdg8n_4w4U1-70" value="SIM" style="edgeStyle=orthogonalEdgeStyle;rounded=0;orthogonalLoop=1;jettySize=auto;html=1;" edge="1" parent="1" source="xGtlebXgADdg8n_4w4U1-67" target="xGtlebXgADdg8n_4w4U1-69">
          <mxGeometry relative="1" as="geometry" />
        </mxCell>
        <mxCell id="xGtlebXgADdg8n_4w4U1-72" value="NAO" style="edgeStyle=orthogonalEdgeStyle;rounded=0;orthogonalLoop=1;jettySize=auto;html=1;" edge="1" parent="1" source="xGtlebXgADdg8n_4w4U1-67" target="xGtlebXgADdg8n_4w4U1-71">
          <mxGeometry relative="1" as="geometry" />
        </mxCell>
        <mxCell id="xGtlebXgADdg8n_4w4U1-67" value="quantidade &amp;lt;= estoque?" style="rhombus;whiteSpace=wrap;html=1;" vertex="1" parent="1">
          <mxGeometry x="400" y="277.5" width="120" height="105" as="geometry" />
        </mxCell>
        <mxCell id="xGtlebXgADdg8n_4w4U1-69" value="Retirar peça para venda" style="whiteSpace=wrap;html=1;" vertex="1" parent="1">
          <mxGeometry x="600" y="300" width="120" height="60" as="geometry" />
        </mxCell>
        <mxCell id="xGtlebXgADdg8n_4w4U1-78" value="" style="edgeStyle=orthogonalEdgeStyle;rounded=0;orthogonalLoop=1;jettySize=auto;html=1;" edge="1" parent="1" source="xGtlebXgADdg8n_4w4U1-71" target="xGtlebXgADdg8n_4w4U1-77">
          <mxGeometry relative="1" as="geometry" />
        </mxCell>
        <mxCell id="xGtlebXgADdg8n_4w4U1-71" value="Saldo insuficiente" style="whiteSpace=wrap;html=1;" vertex="1" parent="1">
          <mxGeometry x="400" y="420" width="120" height="60" as="geometry" />
        </mxCell>
        <mxCell id="xGtlebXgADdg8n_4w4U1-74" value="" style="endArrow=classic;html=1;rounded=0;exitX=0.5;exitY=1;exitDx=0;exitDy=0;entryX=1;entryY=0.5;entryDx=0;entryDy=0;" edge="1" parent="1" source="xGtlebXgADdg8n_4w4U1-62" target="xGtlebXgADdg8n_4w4U1-45">
          <mxGeometry width="50" height="50" relative="1" as="geometry">
            <mxPoint x="480" y="630" as="sourcePoint" />
            <mxPoint x="420" y="690" as="targetPoint" />
            <Array as="points">
              <mxPoint x="460" y="660" />
            </Array>
          </mxGeometry>
        </mxCell>
        <mxCell id="xGtlebXgADdg8n_4w4U1-75" value="NAO" style="edgeLabel;html=1;align=center;verticalAlign=middle;resizable=0;points=[];" vertex="1" connectable="0" parent="xGtlebXgADdg8n_4w4U1-74">
          <mxGeometry x="0.11" y="-4" relative="1" as="geometry">
            <mxPoint as="offset" />
          </mxGeometry>
        </mxCell>
        <mxCell id="xGtlebXgADdg8n_4w4U1-79" value="" style="edgeStyle=orthogonalEdgeStyle;rounded=0;orthogonalLoop=1;jettySize=auto;html=1;" edge="1" parent="1" source="xGtlebXgADdg8n_4w4U1-77" target="xGtlebXgADdg8n_4w4U1-62">
          <mxGeometry relative="1" as="geometry" />
        </mxCell>
        <mxCell id="xGtlebXgADdg8n_4w4U1-77" value="Mostra saldo" style="shape=display;whiteSpace=wrap;html=1;" vertex="1" parent="1">
          <mxGeometry x="415" y="500" width="90" height="50" as="geometry" />
        </mxCell>
        <mxCell id="xGtlebXgADdg8n_4w4U1-80" value="" style="endArrow=classic;html=1;rounded=0;exitX=0.5;exitY=1;exitDx=0;exitDy=0;entryX=1;entryY=0.5;entryDx=0;entryDy=0;entryPerimeter=0;" edge="1" parent="1" source="xGtlebXgADdg8n_4w4U1-69" target="xGtlebXgADdg8n_4w4U1-77">
          <mxGeometry width="50" height="50" relative="1" as="geometry">
            <mxPoint x="630" y="460" as="sourcePoint" />
            <mxPoint x="654" y="520" as="targetPoint" />
            <Array as="points">
              <mxPoint x="660" y="525" />
            </Array>
          </mxGeometry>
        </mxCell>
        <mxCell id="xGtlebXgADdg8n_4w4U1-82" value="" style="endArrow=classic;html=1;rounded=0;entryX=0.5;entryY=0;entryDx=0;entryDy=0;" edge="1" parent="1" target="xGtlebXgADdg8n_4w4U1-67">
          <mxGeometry width="50" height="50" relative="1" as="geometry">
            <mxPoint x="510" y="620" as="sourcePoint" />
            <mxPoint x="450" y="230" as="targetPoint" />
            <Array as="points">
              <mxPoint x="800" y="620" />
              <mxPoint x="800" y="200" />
              <mxPoint x="460" y="200" />
            </Array>
          </mxGeometry>
        </mxCell>
        <mxCell id="xGtlebXgADdg8n_4w4U1-83" value="SIM" style="edgeLabel;html=1;align=center;verticalAlign=middle;resizable=0;points=[];" vertex="1" connectable="0" parent="xGtlebXgADdg8n_4w4U1-82">
          <mxGeometry x="-0.6999" y="1" relative="1" as="geometry">
            <mxPoint as="offset" />
          </mxGeometry>
        </mxCell>
      </root>
    </mxGraphModel>
  </diagram>
</mxfile>
